<svg width="109" height="113" viewBox="0 0 109 113" fill="none" xmlns="http://www.w3.org/2000/svg">
<g clip-path="url(#clip0_0_7351)">
<path d="M20.7933 24.6846C16.1168 27.0366 3.62945 34.8807 -2.43775 39.226C-3.12265 39.7165 -3.54843 40.4774 -3.63346 41.3156L-6.16296 66.2492C-6.44624 69.0415 -3.08226 70.6591 -1.07807 68.6942L18.1375 49.8553C18.3337 49.6631 18.6516 49.6768 18.8303 49.8854L19.4784 50.6415C20.676 52.0386 22.6527 52.476 24.3279 51.7146C25.9281 50.9872 26.8934 49.3274 26.7343 47.5768L26.0716 40.2878C26.0258 39.7839 26.1846 39.2828 26.5123 38.8972L33.9333 30.1667C34.2578 29.785 34.8146 29.7022 35.236 29.9732L39.2701 32.5665C40.5437 33.3853 42.2278 33.1267 43.1971 31.9635L49.8931 23.9282C50.8231 22.8123 50.8199 21.1904 49.8856 20.0781L41.7029 10.3368C41.2489 9.79629 41 9.11304 41 8.40719V4.72942C41 4.5767 40.9887 4.42455 40.9642 4.27382C40.6836 2.55141 40.0569 -0.258227 39.2511 -1.44406C38.8967 -1.96566 38.2248 -1.80127 37.7136 -1.43204L31.0817 3.35764C30.4211 3.83475 30.5779 4.85931 31.351 5.117L36.5382 6.84605C36.844 6.94802 37.269 7.00243 37.2795 7.3247C37.3012 7.98398 36.5402 9.51146 36.1819 10.627C36.026 11.1122 35.6129 11.5378 35.1262 11.6889C31.2683 12.887 25.8598 18.9141 23.4619 22.4215C22.8206 23.3595 21.8085 24.174 20.7933 24.6846Z" fill="white"/>
<path d="M77.397 39.4704C80.8643 42.8038 99.7171 49.0578 109.312 51.9439C109.44 51.9825 109.567 52.0066 109.701 52.0187L118.537 52.8217C119.626 52.9206 120.435 53.867 120.344 54.9563C119.213 68.5752 116.31 92.1431 112.5 91C107.5 89.5 80.5 71 79 69.5C77.8549 68.3549 77.2258 59.8343 77.0258 55.1468C77.009 54.7517 76.7633 54.4053 76.3961 54.2585L75.9256 54.0702C75.2545 53.8018 74.529 54.3121 74.5548 55.0344L74.9721 66.7198C74.9901 67.2215 74.8186 67.7116 74.4919 68.0928L72.8335 70.0276C72.4101 70.5215 72.5637 71.2818 73.1456 71.5728L73.8944 71.9472C74.572 72.286 75 72.9785 75 73.7361V94.4587C75 95.1113 74.6816 95.7229 74.1469 96.0972L66.165 101.684C65.4675 102.173 64.5374 102.166 63.8471 101.667L56.829 96.5987C56.3084 96.2227 56 95.6196 56 94.9774V85.2361C56 84.4785 55.572 83.786 54.8944 83.4472L53.0381 82.5191C52.3962 82.1981 51.6315 82.2457 51.0343 82.6438L42.6417 88.2388C41.9538 88.6975 41.0545 88.6855 40.379 88.2087L33.8466 83.5976C33.3157 83.2229 33 82.6135 33 81.9637V39.0226C33 38.3804 33.3084 37.7773 33.829 37.4013L40.8886 32.3027C41.5584 31.8189 42.4567 31.7969 43.1495 32.2472L51.09 37.4085C51.6576 37.7774 52 38.4084 52 39.0854V55.1958C52 55.9812 52.864 56.46 53.53 56.0438L55.6577 54.7139C55.8773 54.5767 56.0351 54.3596 56.0979 54.1084L56.9361 50.7558C56.9785 50.586 57.043 50.4225 57.128 50.2695L64.2483 37.453C64.4134 37.1559 64.5 36.8216 64.5 36.4817V24.5953C64.5 23.0272 66.2224 22.0691 67.5547 22.896L75.2301 27.6601C76.6941 28.5687 76.4004 30.7799 74.7501 31.275L70.4253 32.5724C69.5793 32.8262 69 33.6048 69 34.4881V36.2256C69 37.5907 70.3551 38.5868 71.7115 38.4327C73.1693 38.2669 74.8863 38.2814 76.4136 38.7801C76.8014 38.9068 77.1029 39.1876 77.397 39.4704Z" fill="white"/>
<path d="M16.4571 62.9151L23.3647 58.6938C24.0524 58.2735 24.9252 58.3071 25.5786 58.779L32.671 63.9013C33.1916 64.2773 33.5 64.8804 33.5 65.5226V72.2925C33.5 73.0351 33.0886 73.7165 32.4315 74.0624L25.0355 77.955C24.3959 78.2916 23.6244 78.257 23.0175 77.8643L16.4135 73.5911C15.8439 73.2225 15.5 72.5904 15.5 71.9119V64.6217C15.5 63.9249 15.8626 63.2784 16.4571 62.9151Z" fill="white"/>
<path d="M23.9571 89.9151L30.8647 85.6938C31.5524 85.2735 32.4252 85.3071 33.0786 85.779L40.171 90.9013C40.6916 91.2773 41 91.8804 41 92.5226V98.3977C41 99.0839 40.6482 99.7222 40.068 100.089L32.677 104.757C31.9696 105.203 31.0588 105.163 30.3941 104.654L23.7851 99.6004C23.2903 99.222 23 98.6346 23 98.0117V91.6217C23 90.9249 23.3626 90.2784 23.9571 89.9151Z" fill="white"/>
<path d="M77.829 84.9013L84.829 79.8457C85.528 79.3409 86.472 79.3409 87.171 79.8457L94.2149 84.933C94.7108 85.2911 95.0155 85.8564 95.0421 86.4675L95.9504 107.359C95.9811 108.066 95.6358 108.737 95.0422 109.123L87.1495 114.253C86.4567 114.703 85.5584 114.681 84.8886 114.197L77.829 109.099C77.3084 108.723 77 108.12 77 107.477V86.5226C77 85.8804 77.3084 85.2773 77.829 84.9013Z" fill="white"/>
<path fill-rule="evenodd" clip-rule="evenodd" d="M18.4204 30.3007C18.4204 30.3007 19.0418 28.8678 21.123 27.2492C22.6522 26.0599 24.8449 24.5668 25.9077 22.9375C27.7159 20.1654 31.9827 15.2966 36.7762 13.6244C41.5696 11.9522 37.3824 13.576 37.6554 13.6244C37.6554 13.6244 34.2867 19.4923 34.8666 19.4923C35.5694 19.4923 39.7257 18.4363 39.7257 18.4363C39.7257 18.4363 42.5974 18.4363 42.4527 20.5855C42.3316 22.3845 33.8579 24.7764 33.5914 25.0498C33.1607 25.4914 33.8642 27.0519 33.5914 26.896C33.5914 26.896 33.1572 29.9331 29.9935 31.1711C26.8298 32.4091 24.1819 39.665 24.1819 39.665L19.5404 44.7249L18.4204 30.3007Z" fill="#DADCE0"/>
<path fill-rule="evenodd" clip-rule="evenodd" d="M69.7892 44.6188C69.9822 44.5449 69.9891 44.3632 69.9542 44.1956C69.8456 43.6722 69.6299 43.1866 69.4084 42.7032C69.3555 42.5877 69.1979 42.4423 69.4569 42.3595C70.7028 41.9612 71.8983 41.3992 73.2079 41.2079C73.6975 41.1363 74.161 41.2148 74.6249 41.3877C76.0646 41.9243 77.393 42.6815 78.7117 43.4522C79.6985 44.029 80.6892 44.5967 81.7407 45.0427C82.2637 45.2646 82.5486 45.6457 82.7266 46.149C83.1178 47.2556 83.2839 48.4051 83.3849 49.5679C83.5893 51.9224 83.5543 54.2766 83.4036 56.6361C83.2242 56.636 83.1696 56.493 83.083 56.4059C80.8852 54.1944 78.4773 52.2238 76.0512 50.2746C75.6752 49.9725 75.2623 49.7231 74.8435 49.481C74.1191 49.0623 73.407 49.0768 72.6765 49.4557C71.8773 49.8702 71.1324 50.3669 70.4082 50.8991C69.5778 51.5094 68.7463 52.119 67.8283 52.5972C67.1245 52.9638 66.3756 53.1681 65.585 53.2013C65.0469 53.2238 64.9251 53.0305 65.1399 52.5263C65.3286 52.0832 65.6876 51.7768 66.0388 51.4733C67.0709 50.581 68.1294 49.7176 69.034 48.6886C69.688 47.9448 70.2028 47.1202 70.4825 46.1611C70.4964 46.1135 70.5398 46.0677 70.5369 46.0233C70.5197 45.7633 70.7454 45.3805 70.3903 45.2819C70.0736 45.1939 69.9649 44.7729 69.7892 44.6188Z" fill="#DADCE0"/>
<path fill-rule="evenodd" clip-rule="evenodd" d="M23.7205 75.3939C23.8278 74.018 23.8371 72.6839 24.1256 71.3642C24.6676 72.6747 24.4163 74.0795 24.5652 75.4848C25.199 75.1787 25.6746 74.6981 26.2602 74.381C27.8439 73.5235 31.3173 71.6321 31.355 71.4391C31.4599 70.9034 31.3093 70.3366 31.4855 69.7876C31.5357 69.6313 31.7655 69.6295 31.8115 69.7872C31.8519 69.9262 31.8505 70.0775 31.8784 70.2082C31.9533 70.5585 31.9172 72.1232 31.8067 72.1931C28.5951 74.2222 24.5716 76.4681 24.1896 76.6376C24.1018 76.6766 24.0368 76.648 23.957 76.6089C23.0899 76.1832 22.3181 75.6196 21.5724 75.0164C20.9717 74.5305 17.4788 71.7049 17.1177 71.5874C17.0373 71.5611 17.1964 69.2994 17.282 68.4028C17.3341 67.8579 17.4036 67.3052 17.6111 66.7846C17.6436 66.703 17.6798 66.6218 17.7601 66.6437C17.8323 66.6634 17.8801 66.7434 17.8873 66.8403C17.9542 67.7398 18.0665 70.5372 18.1726 71.0271C18.257 71.4168 18.6024 71.6342 18.8833 71.8397C20.444 72.9812 22.0323 74.0856 23.5216 75.3203C23.5572 75.3498 23.6132 75.3553 23.7205 75.3939Z" fill="#202124"/>
<path fill-rule="evenodd" clip-rule="evenodd" d="M19.803 66.615C21.104 67.3582 22.2445 68.3145 23.4018 69.2493C24.3293 69.9984 24.3263 69.9813 25.3156 69.3045C27.0408 68.1242 28.8713 67.1229 30.7652 66.2343C31.1385 66.0591 31.1451 66.0728 31.5058 66.0937C31.1909 66.6396 30.6375 66.8983 30.1676 67.2215C28.6364 68.275 27.0627 69.2678 25.5239 70.3107C24.769 70.8223 24.0421 70.8377 23.316 70.3135C21.6248 69.0925 19.9591 67.8388 18.4228 66.426C18.2015 66.2225 18.0349 65.9591 17.7404 65.8311C17.6613 65.7967 17.5526 65.7115 17.6024 65.5929C17.666 65.4417 17.8119 65.4951 17.9114 65.5286C18.4277 65.7026 18.9149 65.9368 19.3693 66.2395C19.5181 66.3386 19.7933 66.6095 19.803 66.615Z" fill="#202124"/>
<path fill-rule="evenodd" clip-rule="evenodd" d="M29.0112 64.1559C27.5371 63.1227 26.1191 62.0169 24.7063 60.9051C24.4865 60.7321 24.3858 60.7374 24.1742 60.9292C23.8896 61.1872 23.5333 61.3688 23.2036 61.5767C21.3943 62.718 19.5837 63.8575 17.7732 64.997C17.6584 65.0692 17.5426 65.1403 17.4237 65.2055C17.2642 65.2929 17.0973 65.3375 16.9683 65.1645C16.8591 65.0181 16.9238 64.875 17.0259 64.7514C17.1317 64.6231 17.2265 64.4731 17.3606 64.3825C19.4068 63.0009 21.4361 61.5922 23.6166 60.4182C24.2233 60.0915 24.7623 60.1107 25.4003 60.5083C26.7381 61.3419 27.8537 62.4501 29.1549 63.3188C29.7862 63.7403 31.0148 64.934 31.0352 65.0208C31.0613 65.1322 31.1511 65.2505 31.016 65.3837C30.8572 65.5403 30.7394 65.3981 30.6695 65.3375C30.3228 65.0364 29.1052 64.2218 29.0112 64.1559Z" fill="#202124"/>
<path fill-rule="evenodd" clip-rule="evenodd" d="M28.5271 64.0972C28.518 63.9349 26.8618 63.4243 26.0143 63.8078C25.941 63.841 25.951 63.9474 26.0295 63.9654C26.8042 64.1428 28.5088 64.3226 28.5271 64.0972ZM29.167 65.3795C29.0897 65.5559 29.038 65.7559 28.8044 65.72C28.5904 65.6871 28.6647 65.487 28.6633 65.3468C28.6588 64.9136 28.5482 64.6909 28.0151 64.819C27.2709 64.9976 26.5303 64.8012 25.7989 64.6358C25.6943 64.6121 25.5433 64.4632 25.4773 64.6993C25.4239 64.8908 25.5168 64.9771 25.6878 65.0261C26.2079 65.1752 26.7265 65.329 27.2463 65.4785C27.5017 65.5518 27.7641 65.6079 27.9656 65.7577C27.9699 65.915 27.8666 65.9457 27.8004 65.9516C26.9773 66.0247 26.1838 65.9149 25.4042 65.6249C24.8652 65.4244 25.0361 64.9733 24.9975 64.621C24.9483 64.1734 24.947 63.661 25.4068 63.4C25.9496 63.092 27.6105 63.2484 27.8219 63.2938C28.1467 63.3636 28.4618 63.4532 28.7662 63.5772C28.8984 63.6311 29.0012 63.7371 29.0479 63.8708C29.1685 64.2164 29.367 64.9232 29.167 65.3795Z" fill="#202124"/>
<path fill-rule="evenodd" clip-rule="evenodd" d="M23.3244 65.3742C23.3153 65.2118 21.6591 64.7013 20.8116 65.0848C20.7383 65.1179 20.7483 65.2244 20.8268 65.2424C21.6015 65.4198 23.3061 65.5996 23.3244 65.3742ZM23.9644 66.6564C23.8871 66.8328 23.8354 67.0328 23.6018 66.9969C23.3878 66.964 23.4621 66.7639 23.4607 66.6236C23.4562 66.1905 23.3456 65.9678 22.8125 66.0958C22.0683 66.2745 21.3277 66.0781 20.5963 65.9127C20.4917 65.889 20.3407 65.7401 20.2747 65.9762C20.2213 66.1677 20.3142 66.254 20.4852 66.303C21.0053 66.452 21.5239 66.6059 22.0437 66.7553C22.2991 66.8287 22.5615 66.8848 22.763 67.0346C22.7673 67.1918 22.664 67.2225 22.5978 67.2284C21.7747 67.3016 20.9812 67.1918 20.2016 66.9018C19.6626 66.7013 19.8335 66.2502 19.7949 65.8979C19.7457 65.4503 19.7444 64.9379 20.2042 64.6769C20.747 64.3688 22.4079 64.5253 22.6193 64.5707C22.9441 64.6405 23.2592 64.7301 23.5636 64.8541C23.6958 64.908 23.7986 65.014 23.8453 65.1477C23.9659 65.4933 24.1644 66.2 23.9644 66.6564Z" fill="#202124"/>
<path fill-rule="evenodd" clip-rule="evenodd" d="M31.0902 102.13C31.1974 100.718 31.2068 99.3495 31.4953 97.9955C32.0373 99.3401 31.786 100.781 31.9348 102.223C32.5687 101.909 33.0443 101.416 33.6299 101.091C35.2136 100.211 38.687 98.2703 38.7247 98.0723C38.8296 97.5226 38.679 96.9411 38.8552 96.3778C38.9054 96.2174 39.1352 96.2156 39.1812 96.3774C39.2216 96.52 39.2201 96.6753 39.2481 96.8094C39.323 97.1688 39.2869 98.7742 39.1764 98.8459C35.9648 100.928 31.9413 103.232 31.5593 103.406C31.4715 103.446 31.4064 103.417 31.3267 103.376C30.4596 102.94 29.6878 102.361 28.9421 101.743C28.3414 101.244 24.8485 98.345 24.4874 98.2244C24.4069 98.1975 24.5661 95.8769 24.6517 94.957C24.7038 94.398 24.7733 93.8309 24.9807 93.2967C25.0132 93.213 25.0494 93.1297 25.1298 93.1522C25.202 93.1724 25.2498 93.2544 25.257 93.3539C25.3238 94.2768 25.4362 97.1469 25.5423 97.6496C25.6267 98.0494 25.972 98.2725 26.253 98.4833C27.8137 99.6545 29.402 100.788 30.8913 102.054C30.9269 102.085 30.9829 102.09 31.0902 102.13Z" fill="#202124"/>
<path fill-rule="evenodd" clip-rule="evenodd" d="M27.1727 93.1227C28.4736 93.8852 29.6141 94.8664 30.7715 95.8255C31.699 96.5941 31.696 96.5766 32.6853 95.8821C34.4105 94.6712 36.241 93.6438 38.1349 92.7321C38.5082 92.5523 38.5148 92.5664 38.8755 92.5878C38.5606 93.1479 38.0072 93.4133 37.5373 93.745C36.0061 94.8259 34.4324 95.8444 32.8936 96.9144C32.1387 97.4394 31.4118 97.4552 30.6857 96.9174C28.9944 95.6646 27.3288 94.3784 25.7925 92.9288C25.5712 92.72 25.4046 92.4497 25.1101 92.3184C25.031 92.2831 24.9223 92.1957 24.9721 92.0741C25.0357 91.9189 25.1815 91.9737 25.2811 92.0081C25.7974 92.1866 26.2845 92.4268 26.739 92.7374C26.8878 92.8391 27.163 93.117 27.1727 93.1227Z" fill="#202124"/>
<path fill-rule="evenodd" clip-rule="evenodd" d="M36.3813 90.5996C34.9072 89.5395 33.4893 88.4051 32.0765 87.2643C31.8566 87.0868 31.7559 87.0922 31.5443 87.2891C31.2598 87.5537 30.9034 87.7401 30.5738 87.9534C28.7644 89.1244 26.9539 90.2934 25.1433 91.4626C25.0286 91.5367 24.9127 91.6096 24.7938 91.6765C24.6344 91.7662 24.4674 91.812 24.3384 91.6345C24.2292 91.4843 24.2939 91.3375 24.396 91.2106C24.5019 91.079 24.5966 90.925 24.7307 90.8322C26.777 89.4146 28.8063 87.9693 30.9867 86.7647C31.5934 86.4295 32.1324 86.4492 32.7705 86.8572C34.1082 87.7125 35.2239 88.8495 36.525 89.7408C37.1563 90.1732 38.385 91.398 38.4053 91.4871C38.4315 91.6014 38.5213 91.7227 38.3862 91.8594C38.2273 92.0201 38.1096 91.8742 38.0396 91.812C37.6929 91.503 36.4753 90.6672 36.3813 90.5996Z" fill="#202124"/>
<path fill-rule="evenodd" clip-rule="evenodd" d="M35.8967 90.5408C35.8876 90.3742 34.2315 89.8504 33.3839 90.2439C33.3106 90.2779 33.3206 90.3871 33.3991 90.4056C34.1738 90.5875 35.8785 90.7721 35.8967 90.5408ZM36.5367 91.8564C36.4594 92.0374 36.4077 92.2427 36.1742 92.2058C35.9601 92.172 36.0344 91.9668 36.033 91.8228C36.0286 91.3784 35.9179 91.1499 35.3848 91.2813C34.6407 91.4647 33.9001 91.2631 33.1686 91.0934C33.0641 91.0691 32.913 90.9163 32.8471 91.1585C32.7936 91.355 32.8866 91.4436 33.0575 91.4939C33.5776 91.6468 34.0962 91.8046 34.6161 91.9579C34.8715 92.0332 35.1338 92.0908 35.3353 92.2445C35.3397 92.4058 35.2364 92.4373 35.1701 92.4434C34.347 92.5185 33.5535 92.4058 32.774 92.1082C32.235 91.9025 32.4059 91.4397 32.3672 91.0783C32.318 90.619 32.3167 90.0933 32.7765 89.8255C33.3193 89.5094 34.9802 89.67 35.1916 89.7165C35.5165 89.7881 35.8315 89.88 36.1359 90.0073C36.2681 90.0626 36.371 90.1714 36.4176 90.3085C36.5382 90.6631 36.7367 91.3883 36.5367 91.8564Z" fill="#202124"/>
<path fill-rule="evenodd" clip-rule="evenodd" d="M30.694 91.8506C30.6849 91.684 29.0288 91.1602 28.1812 91.5537C28.1079 91.5877 28.1179 91.6969 28.1964 91.7154C28.9711 91.8973 30.6758 92.0819 30.694 91.8506ZM31.334 93.1662C31.2567 93.3472 31.205 93.5525 30.9715 93.5156C30.7574 93.4818 30.8317 93.2766 30.8303 93.1326C30.8259 92.6882 30.7152 92.4597 30.1821 92.5911C29.438 92.7744 28.6974 92.5729 27.9659 92.4032C27.8614 92.3789 27.7103 92.2261 27.6444 92.4683C27.5909 92.6648 27.6839 92.7534 27.8548 92.8036C28.3749 92.9566 28.8935 93.1144 29.4134 93.2677C29.6688 93.343 29.9311 93.4006 30.1326 93.5543C30.137 93.7156 30.0337 93.7471 29.9674 93.7532C29.1443 93.8283 28.3508 93.7155 27.5713 93.418C27.0323 93.2123 27.2032 92.7495 27.1645 92.388C27.1153 91.9287 27.114 91.403 27.5738 91.1353C28.1166 90.8192 29.7775 90.9798 29.9889 91.0263C30.3138 91.0979 30.6288 91.1898 30.9332 91.3171C31.0654 91.3724 31.1683 91.4811 31.2149 91.6183C31.3355 91.9729 31.534 92.698 31.334 93.1662Z" fill="#202124"/>
<path fill-rule="evenodd" clip-rule="evenodd" d="M72.2918 88.9172C70.3344 90.0807 68.4246 91.3241 66.4973 92.5382C66.2879 92.6701 66.0793 92.8033 65.8202 92.9678C65.8202 91.2141 65.8202 89.5391 65.8201 87.8642C65.8201 87.6872 65.8788 87.5573 66.0413 87.4527C68.2225 86.0495 70.3994 84.6394 72.5785 83.2327C72.6022 83.2174 72.6408 83.2255 72.6812 83.2219C72.7922 83.3288 72.7349 83.4693 72.733 83.5902C72.7106 85.0063 72.7824 86.42 72.8647 87.832C72.8946 88.3447 72.779 88.6276 72.2918 88.9172ZM61.9324 73.9332C62.882 73.2499 63.683 73.8342 64.5189 74.0445C63.6695 74.3531 62.8426 74.1282 61.9324 73.9332ZM64.5762 78.0219C63.6167 77.2847 60.7278 75.5862 60.6839 75.5601C60.2315 75.2917 59.7871 75.0097 59.2576 74.6824C59.888 74.3001 60.4507 73.9588 61.1335 73.5446C60.8103 74.2223 61.0167 74.8097 60.9843 75.3903C60.9815 75.4406 60.9773 75.515 60.9488 75.5673C60.991 75.5908 61.0328 75.6151 61.0721 75.6433C61.1022 75.6648 61.1302 75.6874 61.1546 75.7151C61.1645 75.7264 61.1741 75.7379 61.1849 75.7483C61.1872 75.7505 61.1897 75.7527 61.192 75.7548C61.1934 75.756 61.1934 75.7561 61.194 75.7568C61.1942 75.7568 61.1942 75.7566 61.1954 75.7574C61.1982 75.7592 61.201 75.761 61.2039 75.7626C61.2057 75.7636 61.2142 75.7676 61.2085 75.7653C61.2091 75.7655 61.2095 75.766 61.2102 75.7663C61.2683 75.7733 61.3117 75.809 61.36 75.84C61.4152 75.8754 61.4784 75.8975 61.5363 75.9278C61.5846 75.9531 61.6252 75.9874 61.6679 76.0208C61.7018 76.0474 61.7408 76.0764 61.7854 76.0788C61.8007 76.0797 61.8122 76.0862 61.8202 76.0954C62.6717 76.2566 63.6968 76.2616 63.9163 76.2512C64.0439 76.2451 64.2287 76.073 64.253 75.9374C64.2853 75.7576 64.0719 75.7558 63.9718 75.729C63.2532 75.5369 62.5288 75.3663 61.8048 75.1947C61.5144 75.1258 61.3609 74.9928 61.5201 74.677C62.5651 74.8606 63.6113 75.0839 64.6659 74.7269C64.8352 74.6696 64.8486 74.776 64.8752 74.903C64.9192 75.1127 64.9934 75.316 65.0422 75.5249C65.0688 75.6387 65.0819 75.7857 65.2144 75.7792C65.3163 75.7742 65.4057 75.6677 65.4665 75.5584C65.5429 75.421 65.5779 75.2779 65.5607 75.1275C65.3693 73.4518 65.4962 73.1269 63.7317 72.8678C63.3903 72.8177 63.139 72.7515 62.7717 72.808C62.6911 72.8204 62.6345 72.6836 62.702 72.6379C63.2355 72.2766 63.6848 72.0138 64.1626 71.6144C64.2903 71.5076 64.3853 71.5326 64.4967 71.6126C64.6051 71.6903 64.7125 71.7695 64.8244 71.842C65.3001 72.1499 65.7646 72.431 66.2531 71.9075C66.5316 71.6089 66.8022 71.6373 67.1499 71.8497C68.6355 72.7572 70.1415 73.6292 71.7009 74.4029C71.8382 74.4711 71.9702 74.5441 72.1647 74.6468C71.7525 74.9049 71.3839 75.1357 70.987 75.3842C70.918 75.1618 70.8152 74.9768 70.8111 74.7897C70.7982 74.2019 70.4429 73.9429 69.9345 73.8947C69.1778 73.8231 68.4767 73.3884 67.6772 73.5922C66.5109 73.8894 66.1669 74.4012 66.3924 75.5747C66.5436 76.3614 66.692 76.5021 67.5408 76.624C67.9148 76.6778 68.2919 76.7105 68.77 76.7642C68.1001 77.191 67.4899 77.5784 66.9004 77.9776C66.0434 78.5579 65.2688 78.554 64.5762 78.0219ZM64.9595 86.1341C64.7486 86.1855 64.6352 86.0366 64.5029 85.9549C62.6403 84.8052 60.7835 83.6462 58.9175 82.5019C58.676 82.3537 58.5751 82.1809 58.5755 81.9044C58.5792 79.7596 58.4097 77.6176 58.4755 75.3674C60.0553 76.3662 61.5664 77.3193 63.0749 78.2763C63.6633 78.6496 64.2378 79.0456 64.835 79.4038C65.0835 79.5528 65.1615 79.722 65.1539 80.0059C65.0991 82.049 64.9223 84.0879 64.9595 86.1341ZM64.9102 93.38C63.3256 92.2888 61.7772 91.4326 60.2431 90.553C59.7841 90.29 59.3126 90.0485 58.8419 89.8065C58.688 89.7274 58.5558 89.6684 58.5739 89.449C58.7349 87.5066 58.6185 85.5592 58.6707 83.6147C58.671 83.6025 58.6861 83.5906 58.728 83.5289C59.5759 84.0621 60.4292 84.5924 61.276 85.1329C62.3807 85.838 63.4793 86.5525 64.5828 87.2595C64.7696 87.3793 64.9183 87.4882 64.9166 87.7577C64.9044 89.5867 64.9102 91.4158 64.9102 93.38ZM58.4043 67.6221C60.1464 68.7547 61.7843 69.8194 63.4836 70.9242C61.8265 72.0716 60.1124 72.9796 58.4828 74.1517C58.3022 71.9795 58.3765 69.868 58.4043 67.6221ZM58.534 59.7517C58.5355 59.7228 58.5581 59.695 58.594 59.6151C59.6737 60.3032 60.7481 60.9839 61.8182 61.6711C62.7406 62.2633 63.6567 62.8654 64.5793 63.4573C64.7534 63.5691 64.903 63.6721 64.9025 63.9132C64.8982 66.0703 64.9 68.2275 64.9 70.4997C63.8556 69.836 62.9244 69.2414 61.9903 68.6514C60.923 67.9774 59.8548 67.3048 58.7827 66.6384C58.5907 66.5191 58.4447 66.4125 58.4488 66.144C58.482 64.0132 58.4247 61.8814 58.534 59.7517ZM65.7889 67.4705C65.8009 66.4388 65.846 65.4074 65.857 64.3757C65.8596 64.134 65.9235 63.9739 66.1301 63.8434C67.9152 62.7159 69.696 61.5816 71.479 60.4508C71.518 60.426 71.5677 60.418 71.6049 60.4049C71.7231 60.4492 71.6982 60.5451 71.6986 60.6191C71.7085 62.6173 71.827 64.6111 71.947 66.6048C71.9612 66.8422 71.9607 67.0351 71.7072 67.1909C69.7952 68.3661 67.8938 69.5587 65.9884 70.7447C65.9373 70.7765 65.8785 70.7959 65.7859 70.8381C65.7859 69.6859 65.7759 68.5781 65.7889 67.4705ZM67.326 74.5343C68.2795 73.8496 69.0802 74.4337 69.9014 74.643C69.0516 74.9583 68.232 74.7198 67.326 74.5343ZM70.0467 75.3316C70.1452 75.2984 70.2519 75.2843 70.2579 75.4377C70.2637 75.5882 70.4078 75.7575 70.1961 75.8818C69.8079 76.1096 69.4802 76.4182 68.9347 76.2252C68.333 76.0122 67.6773 75.9668 67.0676 75.7473C66.8855 75.6817 66.8489 75.5957 66.8624 75.4273C66.8776 75.2358 66.9874 75.2776 67.1204 75.3154C68.0821 75.4795 69.0621 75.663 70.0467 75.3316ZM72.5233 75.6936C72.6709 77.6875 72.6486 79.6182 72.7043 81.5466C72.7103 81.7517 72.7026 81.922 72.489 82.0547C70.3031 83.4114 68.1239 84.7789 65.8912 86.1756C65.8912 85.3095 65.8718 84.4903 65.8959 83.6723C65.9302 82.5088 65.9985 81.3462 66.0474 80.183C66.0559 79.9813 66.0669 79.825 66.2797 79.6893C68.283 78.4116 70.2748 77.116 72.2706 75.8267C72.3362 75.7842 72.4092 75.7532 72.5233 75.6936ZM57.3306 81.5258C55.266 80.2931 53.1969 79.068 51.1285 77.8418C50.9811 77.7545 50.8657 77.6685 50.8663 77.4629C50.8726 75.2713 50.8702 73.0796 50.8702 70.8059C51.8092 71.3607 52.6923 71.8755 53.5686 72.4017C54.7633 73.1192 55.9501 73.8498 57.147 74.5635C57.3669 74.6947 57.4491 74.8367 57.4738 75.1057C57.6644 77.1802 57.4647 79.2653 57.6599 81.3384C57.6894 81.6512 57.5865 81.6787 57.3306 81.5258ZM50.8411 66.0368C50.8349 65.1451 50.7847 64.2454 50.7367 63.35C50.7296 63.2196 50.7357 63.0886 50.7357 62.8504C51.3401 63.2183 51.8867 63.5463 52.4287 63.8817C53.9956 64.8514 55.5593 65.8263 57.1281 66.793C57.3367 66.9215 57.4839 67.0403 57.4815 67.3285C57.4646 69.3921 57.3464 71.4553 57.497 73.6388C56.1422 72.8356 54.8908 72.0923 53.6381 71.3512C52.824 70.8696 52.0143 70.3797 51.1891 69.9175C50.9339 69.7746 50.8399 69.6084 50.8554 69.3237C50.915 68.2286 50.8488 67.1315 50.8411 66.0368ZM57.1016 60.7288C56.4301 60.982 55.7458 60.9669 54.6726 60.6794C54.5876 60.6566 54.5751 60.5414 54.6525 60.4997C55.5064 60.0399 56.2585 60.5494 57.1016 60.7288ZM51.0982 61C52.6404 60.0189 54.2949 59.219 55.7581 58.1121C55.8931 58.0099 55.9811 58.0186 56.1076 58.1022C56.3293 58.2487 56.6288 58.4368 56.8732 58.5296C57.6663 58.9403 57.5034 59.2637 57.524 60.1512C56.9046 59.8144 56.0061 59.6663 55.4099 59.6025C54.2963 59.4834 53.3951 60.2615 53.4498 61.3726C53.5133 62.6629 53.8028 62.526 54.7838 62.7533C55.3092 62.875 55.8442 62.8199 56.3757 62.815C56.525 62.8137 56.7272 62.7918 56.7547 62.6507C56.7939 62.4505 56.5543 62.46 56.4351 62.4279C55.7164 62.2348 54.9906 62.0681 54.2693 61.8843C54.0972 61.8404 53.9085 61.7959 53.9723 61.5305C54.0455 61.2257 54.2481 61.4307 54.3581 61.449C55.2803 61.6024 56.2 61.7505 57.1186 61.4465C57.3509 61.3696 57.3421 61.5115 57.3863 61.6625C57.5665 62.2788 57.5388 62.9095 57.5403 63.5387C57.5421 64.2659 57.5407 64.993 57.5407 65.8186C55.3379 64.4893 53.2606 63.2362 51.1844 61.9817C51.1139 61.9391 51.0468 61.8872 50.9879 61.8296C50.5116 61.3641 50.519 61.3684 51.0982 61ZM45.1534 74.3538C44.4136 73.9167 43.6553 73.5104 42.9511 73.0119C42.7507 72.87 42.6655 72.7343 42.6699 72.4899C42.7064 70.4603 42.736 68.4306 42.7549 66.4007C42.7579 66.078 42.8554 66.0754 43.0943 66.2178C44.8305 67.2526 46.5696 68.2827 48.3094 69.3115C48.7076 69.547 49.1088 69.7777 49.5149 69.9993C49.6893 70.0943 49.776 70.2016 49.7839 70.4195C49.8644 72.6312 49.8763 74.8434 49.8852 77.1256C48.2606 76.1749 46.7038 75.2698 45.1534 74.3538ZM42.7898 78.8319C42.735 77.1984 42.6562 75.6316 42.6951 73.9778C44.072 74.7888 45.3718 75.5544 46.7093 76.3422C45.3906 77.1799 44.1187 77.9879 42.7898 78.8319ZM43.0775 49.7275C44.9588 48.5368 46.8378 47.3425 48.7119 46.1406C48.9991 45.9564 49.0597 46.0254 49.0665 46.342C49.1099 48.3377 49.1653 50.3333 49.2227 52.3287C49.2293 52.5612 49.1873 52.7283 48.9644 52.8661C47.0282 54.0627 45.1 55.2724 43.1685 56.4767C43.1153 56.5098 43.0517 56.5263 42.8319 56.6169C42.8319 54.3921 42.834 52.2816 42.8287 50.171C42.8282 49.964 42.9037 49.8376 43.0775 49.7275ZM49.5026 60.31C49.5114 60.5219 49.4985 60.6768 49.282 60.8037C47.1358 62.0624 44.9966 63.3332 42.8847 64.5834C42.8847 62.7334 42.9333 60.904 42.8621 59.0794C42.831 58.2839 43.0902 57.8175 43.7456 57.4121C45.568 56.2847 47.3586 55.1059 49.1766 53.9379C49.2142 54.001 49.2546 54.0376 49.2561 54.0758C49.3393 56.1538 49.417 58.2321 49.5026 60.31ZM49.6491 64.9748C49.607 65.0332 49.5197 65.0851 49.4476 65.0917C48.7166 65.1584 48.0103 65.0342 47.2704 64.829C48.077 64.1978 48.8189 64.6544 49.5644 64.8282C49.6405 64.8459 49.6849 64.925 49.6491 64.9748ZM49.6652 63.9118C49.6707 64.1648 49.5074 64.1279 49.3656 64.0929C49.0204 64.0078 48.6717 63.9422 48.327 63.8445C47.2048 63.5266 46.1421 64.4856 46.2656 65.6334C46.3758 66.6586 46.4854 66.7578 47.5513 66.9494C48.1151 67.0508 48.6782 67.0217 49.2425 67.0069C49.3675 67.0037 49.5435 66.9771 49.5643 66.8387C49.5908 66.6626 49.381 66.66 49.2787 66.6327C48.5599 66.441 47.8344 66.275 47.1125 66.0945C47.0037 66.0673 46.8755 66.032 46.8075 65.9552C46.7572 65.8984 46.7727 65.7646 46.7901 65.671C46.8214 65.503 46.9437 65.6036 47.0235 65.617C47.8429 65.7545 48.6604 65.9221 49.4957 65.7472C49.6876 65.7069 49.6737 65.8388 49.6739 65.9521C49.6757 66.9597 49.675 67.9674 49.675 69.0071C47.6281 67.8812 45.6533 66.5795 43.4649 65.4617C45.6188 64.3777 47.5487 63.1174 49.5585 61.9072C49.685 62.5966 49.6509 63.2556 49.6652 63.9118ZM41.8574 44.2511C41.7036 45.5091 41.7732 46.7742 41.7616 48.0364C41.7585 48.3651 41.7384 48.5146 41.369 48.2923C39.7369 47.3102 38.0943 46.3456 36.4553 45.3749C36.3138 45.291 36.1651 45.2266 36.1727 45.0127C36.2336 43.3038 36.0564 41.5988 36.0606 39.8303C37.8758 41.3337 39.7071 42.6706 41.6474 43.8556C41.8076 43.9535 41.8817 44.0517 41.8574 44.2511ZM41.7339 56.3985C41.5982 56.4759 41.4937 56.3222 41.3863 56.2598C39.7527 55.3086 38.1239 54.349 36.4901 53.3982C36.2579 53.263 36.1242 53.1215 36.1282 52.8173C36.1543 50.7871 36.1658 48.7565 36.1613 46.7261C36.1604 46.3073 36.2251 46.2347 36.6079 46.4681C38.193 47.4347 39.7901 48.3819 41.3925 49.3197C41.6738 49.4843 41.7812 49.6791 41.7767 49.9975C41.7626 50.9959 41.7715 51.9946 41.7715 52.9933C41.7843 52.9933 41.797 52.9932 41.8098 52.9932C41.8098 53.9917 41.8121 54.9902 41.8071 55.9887C41.8063 56.1284 41.8901 56.3094 41.7339 56.3985ZM41.8047 58.5211C41.7404 60.4296 41.783 62.3417 41.783 64.2524L41.5754 64.3015C39.7678 63.2216 37.9621 62.1383 36.1498 61.0662C35.9412 60.9428 35.9682 60.7737 35.9714 60.5952C36.007 58.5975 36.0532 56.5998 36.0742 54.6019C36.0796 54.0802 36.3226 54.3151 36.5192 54.4308C38.0063 55.3057 39.47 56.2227 40.9826 57.0505C41.6204 57.3995 41.8293 57.7937 41.8047 58.5211ZM41.7329 78.9678C40.8562 78.37 40.0551 77.8187 39.2489 77.2751C38.1341 76.5235 37.0165 75.776 35.8972 75.031C35.7287 74.9188 35.5536 74.8308 35.581 74.5789C35.7505 73.0214 35.6324 71.455 35.7074 69.8615C36.0897 69.903 36.3426 70.1602 36.6281 70.3282C38.1419 71.2188 39.6395 72.1371 41.1539 73.0266C41.475 73.2151 41.6085 73.4198 41.6122 73.8102C41.6269 75.3731 41.6888 76.9356 41.7324 78.4983C41.7359 78.6249 41.7329 78.7516 41.7329 78.9678ZM35.8795 62.3848C35.8852 62.0357 35.9478 61.9267 36.2967 62.1399C37.9813 63.1691 39.6755 64.1827 41.369 65.1974C41.5501 65.306 41.6774 65.414 41.6778 65.6564C41.6811 67.7878 41.6746 69.919 41.6026 72.0495C41.6012 72.0936 41.5761 72.1369 41.544 72.2367C40.671 71.7239 39.8165 71.2261 38.966 70.7214C38.0099 70.1542 37.0622 69.5726 36.1001 69.0158C35.8543 68.8735 35.749 68.719 35.7566 68.4267C35.8085 66.413 35.847 64.3989 35.8795 62.3848ZM40.7814 37.6609C39.7856 37.9791 38.9634 37.7399 38.0388 37.5564C39.0147 36.8793 39.8175 37.444 40.7814 37.6609ZM73.8621 91.8523C73.7001 87.0607 73.5784 76.2126 73.5514 75.6974C73.5058 74.826 73.2113 74.1655 72.3195 73.7876C71.4493 73.4188 70.641 72.902 69.8126 72.4375C69.0624 72.0167 68.323 71.5769 67.5978 71.0359C69.2441 69.9463 70.8458 68.8827 72.5085 67.916C72.75 67.7756 72.8161 67.6029 72.806 67.3536C72.7562 66.1232 72.7003 64.8929 72.6648 63.662C72.5694 60.3504 72.5541 57.0379 72.5444 53.7252C72.5424 53.0153 72.441 52.9222 71.7562 52.9308C71.5598 53.6409 71.6543 54.3678 71.6481 55.087C71.6376 56.2997 71.658 57.5127 71.6693 58.7254C71.6713 58.9438 71.6794 59.1294 71.4422 59.2739C69.6022 60.395 67.7715 61.5314 65.854 62.715C65.854 62.4029 65.8533 62.1493 65.8541 61.8958C65.8572 60.8324 65.8591 59.7691 65.8652 58.7057C65.8667 58.4508 65.8457 58.2072 65.6535 58.0136C65.3066 57.8821 65.1357 58.0267 65.0479 58.3658C64.9712 58.6613 64.9617 58.9573 64.9619 59.2568C64.9626 60.2661 64.9589 61.2751 64.8532 62.3548C64.1757 61.9286 63.5498 61.5315 62.9207 61.1397C61.5954 60.3144 60.2733 59.4837 58.9385 58.6741C58.635 58.49 58.4998 58.2921 58.5102 57.9211C58.5486 56.5562 58.5484 55.1903 58.5653 53.8248C58.5689 53.527 58.5701 53.2308 58.4675 52.9456C57.9766 52.7407 57.7306 52.8668 57.6888 53.4177C57.6436 54.0143 57.6608 54.6158 57.6581 55.2152C57.6542 56.0526 57.6571 56.8901 57.6571 57.7842C57.0793 57.5907 56.7229 57.3178 56.3579 57.0725C56.0597 56.8722 55.7897 56.928 55.5584 57.1048C55.1235 57.4372 54.6222 57.6472 54.1599 57.9271C53.1032 58.5669 52.0437 59.2135 50.9568 59.7918C50.6554 59.9999 50.609 59.8582 50.5988 59.5759C50.5389 57.929 50.44 56.283 50.4104 54.6356C50.3364 50.5066 50.1799 46.381 49.9582 42.2576C49.9422 41.9606 49.913 41.653 49.8172 41.3754C49.7433 41.1609 49.6134 40.8413 49.3357 40.902C49.0801 40.9578 48.9045 41.1807 48.8845 41.5198C48.8272 42.4889 48.9804 43.4484 48.972 44.4138C48.9702 44.6157 48.9903 44.7912 48.7592 44.9144C47.2413 45.7231 45.8122 46.6788 44.3588 47.5944C43.8581 47.91 43.3556 48.2228 42.8437 48.5432C42.8437 47.4528 42.8876 46.4202 42.8307 45.3932C42.7794 44.471 43.0618 43.8489 43.8792 43.329C44.9491 42.6484 45.9515 41.8529 46.9672 41.0846C47.6511 40.5673 48.3011 40.0154 48.9584 39.4694C49.0298 39.4101 49.1936 39.3738 49.0934 39.2165C49.044 39.1389 48.9811 39.116 48.8858 39.16C48.4254 39.3727 47.9422 39.5444 47.5047 39.796C47.0276 40.0704 46.6017 40.4323 46.1359 40.7284C45.1532 41.3532 44.1629 41.9654 43.2547 42.6993C42.7098 43.1397 42.0643 43.1526 41.4875 42.7416C41.3113 42.6161 41.1416 42.4814 40.9643 42.3576C39.4399 41.2941 37.965 40.1506 36.2299 39.4269C35.9932 39.3281 35.8637 38.7896 36.0633 38.636C36.3679 38.4016 36.6517 38.1207 37.0213 37.992C37.1058 38.2254 37.0922 38.4424 37.1346 38.6552C37.2646 39.3074 37.3977 39.4884 38.0319 39.6197C38.672 39.7523 39.321 39.7567 39.9706 39.7275C40.1293 39.7204 40.3526 39.721 40.3636 39.5316C40.3725 39.3793 40.1479 39.3713 40.0151 39.3295C39.2885 39.101 38.5211 39.0374 37.8007 38.7736C37.5901 38.6965 37.5525 38.5889 37.5913 38.4099C37.6435 38.1685 37.8101 38.3328 37.9032 38.3486C38.6425 38.4742 39.3812 38.6005 40.1335 38.4981C40.3952 38.4625 40.7133 38.2695 40.8918 38.3639C41.0542 38.4496 41.06 38.8285 41.139 39.0767C41.1778 39.1988 41.1692 39.4033 41.3135 39.401C41.4807 39.3984 41.5792 39.2211 41.6389 39.061C41.9791 38.1493 41.2977 36.992 40.3461 36.8226C39.9221 36.7471 39.4521 36.8204 39.0789 36.4602C39.2179 36.3577 39.364 36.2531 39.5068 36.1441C40.2967 35.5413 41.218 35.1164 41.905 34.3748C42.0284 34.2416 42.1043 34.3517 42.1951 34.415C43.864 35.5769 45.5275 36.7468 47.2064 37.8942C47.6506 38.1979 48.1097 38.5121 48.6718 38.5372C48.7318 38.2844 48.564 38.1751 48.4397 38.0474C47.9024 37.4955 47.3133 37.0086 46.661 36.5946C45.3136 35.7395 44.1099 34.6731 42.6816 33.9316C42.086 33.6224 41.5881 33.7523 41.0931 34.0736C39.8717 34.8662 38.6425 35.6492 37.4847 36.534C36.7264 37.1135 35.9916 37.7236 35.2443 38.3176C35.0168 38.4985 34.9558 38.7247 34.9628 39.0135C35.0187 41.3224 35.04 43.6314 35.0337 45.9414C35.0119 54.0188 34.698 62.0915 34.6593 70.168C34.6442 73.3139 34.4511 76.4604 34.6706 79.6071C34.7269 80.4143 34.8704 81.2237 34.7154 82.0386C34.6728 82.2628 34.8392 82.389 35.0081 82.5113C36.0158 83.2412 37.0348 83.957 38.017 84.7199C38.7953 85.3243 39.5753 85.9206 40.4434 86.3894C40.7063 86.5313 40.9983 86.6449 41.2087 86.2857C41.2163 85.987 41.0526 85.8054 40.8157 85.6461C39.0615 84.4667 37.4773 83.067 35.8121 81.7721C35.6983 81.6837 35.6448 81.5813 35.6446 81.4338C35.6416 79.6374 35.4594 77.8429 35.5835 76.0501C35.7324 75.9511 35.8006 76.0875 35.8871 76.1465C37.7405 77.409 39.5896 78.6778 41.4475 79.9338C41.6798 80.0908 41.7729 80.2573 41.7713 80.5421C41.7634 81.9406 41.7711 83.3395 41.7913 84.738C41.7988 85.2523 41.8558 85.7659 41.8902 86.2798C41.9198 86.3381 41.9612 86.3936 41.9773 86.4555C42.1095 86.9641 42.4105 87.0371 42.8479 86.7091C44.2006 85.6946 45.5303 84.6518 46.9486 83.7221C47.6434 83.2667 48.2967 82.7227 48.9544 82.2003C49.326 81.9051 49.4245 81.6517 49.336 81.2384C49.0634 81.3766 48.7725 81.2696 48.5162 81.4572C47.057 82.5251 45.5802 83.5689 44.1078 84.6185C43.6148 84.9699 43.1361 85.34 42.6253 85.8345C42.7464 84.0932 42.7731 82.4795 42.7116 80.8664C42.695 80.4292 42.8604 80.1524 43.2082 79.9254C44.5693 79.0367 45.9224 78.1359 47.2828 77.2464C47.5444 77.0754 47.8071 77.0406 48.1048 77.2336C48.6123 77.5624 49.1339 77.8754 49.6758 78.142C49.8985 78.2515 49.9457 78.3713 49.9569 78.5841C49.9895 79.1986 50.0413 79.8121 50.0816 80.4262C50.088 80.5237 50.063 80.6184 50.166 80.6917C50.2801 80.773 50.3678 80.9425 50.5285 80.8759C50.7865 80.769 50.9605 80.5704 50.9648 80.2728C50.9713 79.8274 50.9666 79.3818 50.9666 78.9245C51.3355 78.9427 51.4981 79.2532 51.757 79.4051C52.69 79.9524 53.6009 80.5379 54.5404 81.0733C55.5788 81.6648 56.5483 82.3721 57.6273 82.8936L57.6667 82.918C57.6667 82.918 57.6608 82.9635 57.6608 82.963C57.666 83.056 57.715 85.0038 57.7289 85.7198C57.7766 86.9423 57.7923 88.1648 57.7259 89.3869C57.7104 90.0356 57.6877 90.6845 57.6808 91.3337C57.6699 92.3473 57.7198 93.3648 57.6463 94.3735C57.6007 94.9995 57.7985 95.4202 58.2835 95.7598C58.5674 95.9586 58.8393 96.1744 59.122 96.3749C60.3463 97.2432 61.5938 98.0807 62.7873 98.9893C63.2448 99.3376 63.6655 99.5969 64.2485 99.4698C64.3111 99.1802 64.2308 98.9604 63.9733 98.7877C62.3004 97.6664 60.7994 96.321 59.1916 95.1171C58.6071 94.6796 58.4012 94.2326 58.4559 93.5482C58.5194 92.7526 58.5259 91.952 58.5386 91.1532C58.5436 90.8412 58.5928 90.713 58.9197 90.9135C60.5604 91.9201 62.1708 92.9849 63.8669 93.8882C64.7206 94.343 64.9288 94.8849 64.8857 95.7769C64.8249 97.0373 64.91 98.3048 64.9326 99.5689C65.1119 100.043 65.4349 100.151 65.8538 99.8445C67.1297 98.9115 68.4013 97.9725 69.6676 97.0265C70.5249 96.3861 71.3704 95.7301 72.221 95.0809C72.4269 94.9238 72.5624 94.6682 72.4265 94.4793C72.2969 94.2992 72.0251 94.3842 71.8045 94.4904C71.3005 94.7332 70.8647 95.0793 70.4146 95.3983C68.973 96.4197 67.551 97.4688 66.1187 98.5033C66.0345 98.5641 65.8683 98.7214 65.8108 98.6561C65.7854 98.6271 65.7747 98.428 65.7744 98.3174C65.7713 97.1688 65.7865 96.0199 65.7639 94.8718C65.7572 94.533 65.8572 94.3231 66.1407 94.1393C68.0975 92.8706 70.0438 91.5857 71.9987 90.3142C72.2792 90.1318 72.5616 89.9284 72.9749 89.9067C72.9749 90.679 72.9733 91.4276 72.9758 92.1762C72.9766 92.4127 73.0044 92.6821 73.3064 92.6673C73.5945 92.6533 73.8455 92.5029 73.863 92.1518C73.868 92.0522 73.8654 91.952 73.8621 91.8523Z" fill="#202124"/>
<path fill-rule="evenodd" clip-rule="evenodd" d="M66.4603 50.0208C66.5339 50.0208 66.5764 50.0344 66.5975 50.0188C68.0997 48.9144 69.2799 47.5504 69.9941 45.8084C70.0811 45.5963 70.0736 45.1932 70.3903 45.2812C70.7454 45.3798 70.5197 45.7626 70.5369 46.0226C70.5398 46.067 70.4964 46.1128 70.4825 46.1604C70.2028 47.1195 69.688 47.9441 69.034 48.6879C68.1294 49.7169 67.0709 50.5803 66.0388 51.4726C65.6876 51.7761 65.3286 52.0825 65.1399 52.5256C64.9251 53.0298 65.0469 53.2231 65.585 53.2006C66.3756 53.1674 67.1245 52.9631 67.8283 52.5965C68.7463 52.1183 69.5778 51.5087 70.4082 50.8984C71.1324 50.3662 71.8773 49.8695 72.6765 49.455C73.407 49.0761 74.1191 49.0616 74.8435 49.4803C75.2623 49.7224 75.6752 49.9718 76.0512 50.2739C78.4773 52.2231 80.8852 54.1937 83.083 56.4052C83.1696 56.4923 83.2242 56.6353 83.4036 56.6354C83.5543 54.2759 83.5893 51.9217 83.3849 49.5672C83.2839 48.4044 83.1178 47.2549 82.7266 46.1483C82.5486 45.645 82.2637 45.2639 81.7407 45.042C80.6892 44.596 79.6985 44.0283 78.7117 43.4515C77.393 42.6808 76.0646 41.9236 74.6249 41.387C74.161 41.2141 73.6975 41.1356 73.2079 41.2072C71.8983 41.3985 70.7028 41.9605 69.4569 42.3588C69.1979 42.4416 69.3555 42.587 69.4084 42.7025C69.6299 43.1859 69.8456 43.6715 69.9542 44.1949C69.9891 44.3625 69.9822 44.5442 69.7892 44.6181C69.6315 44.6784 69.489 44.5981 69.3946 44.4722C69.2755 44.3132 69.1644 44.1455 69.0722 43.9697C68.7636 43.3813 68.475 42.7822 68.1601 42.1973C67.6764 41.2992 67.2049 40.3915 66.45 39.4926C66.6442 43.0973 66.8122 46.5595 66.4603 50.0208ZM58.7778 52.8116C58.7382 52.4422 58.8239 52.3608 59.2194 52.4975C60.4384 52.9186 61.4488 53.6916 62.5118 54.3725C63.2659 54.8556 63.9749 55.4091 64.7039 55.9313C64.8367 56.0264 64.959 56.1445 65.214 56.1218C64.9697 55.6062 65.1237 55.1018 65.1814 54.5887C65.2061 54.3686 65.158 54.1977 64.8118 54.0583C64.08 53.7638 63.9017 52.5375 64.4909 51.9482C65.1028 51.3361 65.3831 50.7052 65.3167 49.8182C65.2309 48.6718 65.4034 47.5124 65.4505 46.3651C65.4925 45.3456 65.8655 42.0486 65.8761 41.4432C65.8856 40.9053 66.1241 39.5644 65.9977 39.4208C65.8081 39.6094 64.7372 41.7833 64.2772 42.7439C63.8995 43.5329 63.4655 44.2931 63.0765 45.0761C62.7596 45.7138 62.3195 46.3124 62.0007 46.9547C61.6846 47.5919 61.3076 48.1982 60.9881 48.833C60.7056 49.3942 60.3685 49.9551 60.0315 50.5018C59.9565 50.6234 59.903 50.7616 59.859 50.8985C59.7681 51.1813 59.3131 51.5238 59.1308 51.402C58.8242 51.1972 58.8472 50.8827 58.9592 50.5719C59.2321 49.8152 59.6063 49.1043 59.999 48.4072C61.1409 46.3805 62.2864 44.3553 63.4705 42.3531C63.9704 41.5077 64.4768 40.664 65.063 39.8659C65.3635 39.4569 65.4634 38.9029 65.9393 38.5936C65.9979 38.5554 65.9723 38.375 65.9721 38.2606C65.966 35.8793 66.0915 33.5018 66.1647 31.1227C66.1817 30.569 66.3299 25.1347 66.4398 24.6339C66.4756 24.4709 66.7791 24.4499 66.9824 24.5542C67.5633 24.8524 68.1603 25.1241 68.7404 25.4322C69.8438 26.0183 70.9095 26.667 71.9748 27.3174C72.4932 27.6339 73.0105 27.9525 73.5217 28.2805C73.7607 28.4338 74.0392 28.5661 74.0521 28.9133C74.0672 29.3177 73.8276 29.5452 73.499 29.7146C72.575 30.191 71.578 30.4047 70.576 30.6595C69.5278 30.926 68.4968 30.8681 67.4553 30.9176C67.3353 30.9233 67.1239 31.0159 67.1633 30.7374C67.3529 30.6048 67.5579 30.5066 67.773 30.4179C68.8504 29.9736 70.0003 29.8102 71.1208 29.5332C71.7765 29.3711 72.4573 29.2823 73.1276 28.9143C71.175 27.692 69.2239 26.6396 67.312 25.5206C67.1167 25.4063 67.0523 25.4359 67.0549 25.6619C67.0743 27.3228 66.885 28.9806 66.9802 30.6427C66.9061 33.1888 66.8317 35.7349 66.7586 38.2811C66.7544 38.4267 66.7334 38.5657 66.869 38.6908C67.671 39.4301 68.1417 40.402 68.6758 41.3261C68.8174 41.5711 68.9216 41.6851 69.2178 41.5485C70.4333 40.988 71.7024 40.5684 72.9769 40.166C73.5487 39.9854 74.1058 40.1576 74.6459 40.3056C76.0039 40.6776 77.2028 41.3928 78.329 42.2057C79.8901 43.3323 81.5773 44.2111 83.3366 44.9681C85.406 45.8585 87.483 46.7291 89.5813 47.5512C93.7843 49.1978 98.0289 50.7279 102.326 52.1076C104.391 52.7707 106.445 53.4754 108.542 54.0363C108.645 54.0639 108.736 54.1355 108.915 54.2299C108.48 54.3932 108.106 54.33 107.759 54.2803C105.963 54.0228 104.226 53.5013 102.486 53.0103C100.831 52.5434 99.1843 52.0347 97.5631 51.462C95.0828 50.5857 92.6191 49.6604 90.1643 48.7145C88.4202 48.0426 86.7001 47.3078 84.975 46.5875C84.6823 46.4653 84.4107 46.302 84.1041 46.1962C83.8408 46.1053 83.7917 46.1392 83.8645 46.3801C84.8174 49.536 84.6366 52.7715 84.5102 55.9967C84.4533 57.4484 84.3146 58.9007 84.1347 60.343C83.8505 62.6195 83.5597 64.9002 82.7386 67.0674C82.6921 67.1902 82.6514 67.3289 82.5658 67.4208C82.1336 67.8848 82.4772 68.2205 82.7856 68.4831C84.5095 69.9511 86.2544 71.3951 88.0541 72.7697C90.4202 74.5768 92.7987 76.3682 95.2881 78.0048C97.2637 79.3036 99.3033 80.4958 101.384 81.6172C101.47 81.6633 101.56 81.7056 101.634 81.7671C101.678 81.8035 101.725 81.882 101.714 81.9278C101.688 82.0311 101.581 82.0122 101.506 81.9989C101.446 81.9883 101.395 81.9359 101.336 81.9073C98.9276 80.719 96.5124 79.54 94.2382 78.1035C92.0408 76.7155 89.9123 75.2281 87.8325 73.6658C86.1711 72.4178 84.5663 71.1009 82.9236 69.831C82.2644 69.3213 81.6515 68.7564 80.9357 68.3105C80.2518 67.8846 79.9806 67.1281 79.7742 66.3882C79.536 65.5339 79.2939 64.6702 79.1821 63.7941C79.0683 62.903 78.8879 62.0203 78.8486 61.1149C78.8096 60.2138 78.6027 59.3201 78.5624 58.4189C78.5077 57.1912 78.4986 55.9576 78.5534 54.7302C78.5839 54.0459 78.4328 53.5827 77.8608 53.1355C76.6769 52.2101 75.5581 51.2 74.3645 50.2833C73.7431 49.806 73.5801 49.839 72.951 50.2341C71.3664 51.2293 69.9961 52.5456 68.2834 53.3462C67.7249 53.6072 67.1766 53.8904 66.5388 53.932C66.316 53.9465 66.1239 54.0395 66.1493 54.3639C66.1862 54.8367 66.1587 55.3146 66.1587 55.8517C67.2714 54.9963 68.4099 54.2659 69.5648 53.5598C70.3069 53.1061 71.0173 52.5955 71.8559 52.3206C71.9671 52.2841 72.0911 52.1239 72.1819 52.3187C72.2547 52.4748 72.0747 52.5196 71.9952 52.6022C71.8988 52.7024 71.7131 52.7307 71.7451 52.9289L71.7604 52.9128C71.6574 52.9163 71.5791 52.9609 71.4952 53.0252C70.0041 54.1673 68.5081 55.3027 67.0154 56.4427C66.5587 56.7915 66.1145 57.1606 65.5051 57.2046C65.1134 57.1294 64.7378 57.0022 64.4087 56.7772C62.6736 55.5911 60.9028 54.4526 59.3342 53.0407C59.1716 52.8943 59.0281 52.7316 58.7778 52.8116Z" fill="#202124"/>
<path fill-rule="evenodd" clip-rule="evenodd" d="M37.9719 5.83174C36.2054 5.92334 34.5916 5.29244 32.9589 4.76044C32.6734 4.66744 32.4228 4.46414 32.3878 4.13914C32.3415 3.70994 32.6916 3.53874 32.9899 3.36034C33.9478 2.78714 34.9046 2.21124 35.8755 1.66054C36.6798 1.20434 37.3904 0.613944 38.1645 0.115444C38.5627 -0.140956 38.8984 0.0431441 38.9831 0.522044C39.3523 2.60774 39.2587 4.72044 39.3673 6.82094C39.4292 8.01794 39.4376 9.21774 39.4754 10.4161C39.4792 10.5362 39.4457 10.6492 39.5765 10.769C41.0327 12.1016 42.1894 13.7007 43.4824 15.1792C44.6194 16.4793 45.7038 17.8213 46.7712 19.1766C47.2746 19.8159 47.6999 20.5175 48.1487 21.1987C48.4177 21.6069 48.674 22.0243 48.9142 22.4499C48.992 22.5877 49.1718 22.7304 48.9665 23C45.7508 19.5267 42.5348 16.08 39.5138 12.4648C39.7052 14.2224 39.9014 15.9881 40.0846 17.7552C40.1073 17.9734 40.1989 18.0176 40.3965 18.0386C40.9397 18.0961 41.4739 18.2164 41.954 18.4875C42.6814 18.8982 43.1791 19.4681 43.0645 20.371C42.9833 21.011 42.5013 21.3988 42.0512 21.7752C41.7636 22.0156 41.4208 22.2105 41.0727 22.3521C40.7315 22.4909 40.6446 22.6789 40.6874 23.0297C40.8829 24.6319 41.0638 26.236 41.2328 27.8412C41.3057 28.5339 41.3371 29.2309 41.3928 30.0008C42.4177 28.9062 43.4396 27.8905 44.3715 26.798C45.291 25.7199 46.3886 24.8307 47.3606 23.8111C47.443 23.7247 47.6066 23.5738 47.7321 23.6763C47.8812 23.798 47.7111 23.9506 47.6547 24.0711C47.1391 25.1723 46.3392 26.0789 45.6084 27.0328C44.5488 28.4157 43.3279 29.6599 42.2081 30.9915C41.4679 31.8716 40.5632 31.967 39.5769 31.3561C37.8175 30.2664 36.1429 29.0596 34.5523 27.7356C34.4363 27.6389 34.3494 27.523 34.4233 27.4039C34.5267 27.2372 34.6623 27.3955 34.7701 27.4385C36.5116 28.1344 38.1315 29.063 39.7253 30.0411C39.8907 30.1427 40.063 30.2331 40.3091 30.3722C40.213 29.3396 40.137 28.385 40.0326 27.4335C39.8874 26.1102 39.7149 24.79 39.5685 23.4668C39.5356 23.1694 39.5119 23.0255 39.1341 23.1572C37.5481 23.7098 35.9261 24.161 34.4088 24.9014C34.1789 25.0135 34.106 25.1 34.1378 25.4034C34.3623 27.5489 33.6108 29.285 31.8623 30.577C31.063 31.1676 30.2262 31.7213 29.499 32.3923C28.42 33.3879 27.302 34.3524 26.532 35.6517C26.2833 36.0713 25.9973 36.5376 25.5392 36.8737C25.4031 36.477 25.593 36.1943 25.6903 35.8978C26.087 34.6874 26.673 33.5988 27.5776 32.6732C28.5865 31.6409 29.6773 30.7196 30.8121 29.8281C31.5894 29.2175 32.4344 28.5882 32.7252 27.5203C32.8358 27.1142 32.8739 26.6979 32.9881 26.2956C33.033 26.1373 33.0019 26.0024 32.8265 25.9301C32.6612 25.8621 32.5343 25.9126 32.4327 26.0429C32.3941 26.0925 32.3886 26.1733 32.344 26.2119C32.2119 26.3259 32.037 26.5016 31.8893 26.3955C31.7479 26.2939 31.9016 26.1158 31.9778 25.9729C32.5109 24.9731 33.4351 24.4481 34.3846 23.9379C35.6342 23.2665 36.9677 22.8184 38.3017 22.3567C39.3226 22.0035 40.3289 21.5962 41.2225 20.9582C41.5654 20.7134 41.9591 20.4275 41.8449 20.0122C41.7071 19.5104 41.1571 19.2888 40.6927 19.2375C39.5602 19.1125 38.452 19.2987 37.3383 19.5855C36.1378 19.8946 34.9205 20.1804 33.7943 20.667C32.5444 21.207 31.1627 21.5285 30.1374 22.5272C29.8941 22.7642 29.7492 22.6226 29.7063 22.3538C29.6447 21.9681 29.8417 21.693 30.1354 21.4712C31.3041 20.5885 32.6463 20.0614 34.0009 19.5474C35.5024 18.9775 37.0425 18.5521 38.6057 18.1998C38.8201 18.1515 38.9969 18.124 38.9679 17.8048C38.8344 16.3295 38.7302 14.8513 38.6132 13.3744C38.6084 13.314 38.5813 13.2553 38.5507 13.1461C37.4233 15.0668 36.4176 17.0081 34.9929 18.6773C34.9196 18.7633 34.8206 18.7608 34.707 18.7069C35.2889 17.0537 35.9698 15.4439 36.8027 13.9024C37.2154 13.1387 37.5451 12.3129 38.0192 11.6085C38.4996 10.8947 38.475 10.1934 38.4736 9.44444C38.4712 8.17864 38.457 6.91284 38.4478 5.64724C38.4478 4.06414 38.4478 2.48084 38.4478 0.832144C36.9932 2.12474 35.2833 2.89354 33.6341 3.94754C35.0632 4.39894 36.3737 4.79694 37.5828 5.45174C37.7436 5.53874 37.9872 5.55774 37.9719 5.83174Z" fill="#202124"/>
<path fill-rule="evenodd" clip-rule="evenodd" d="M24.8025 38.7908C24.6091 38.9831 24.5091 39.214 24.5605 39.5644C25.0191 42.6961 25.5189 46.9192 24.0547 49.8812C23.6523 50.6953 22.811 50.883 22.0625 50.3431C20.8718 49.4843 20.208 48.2555 19.6973 46.924C19.5843 46.6293 19.4809 46.3309 19.3733 46.0351C18.7397 46.7322 16.5133 49.3168 16.2385 49.6266C14.5023 51.5836 12.6003 53.3708 10.6577 55.1193C9.31496 56.3279 5.03957 59.6644 4.39877 60.327C4.19377 60.539 3.77567 60.5083 3.57636 60.3258C3.37277 60.1392 3.55747 59.8727 3.72127 59.6335C4.39236 58.6536 7.40367 56.4333 7.97247 55.978C9.01336 55.1449 9.99116 54.2287 10.9565 53.3065C12.3247 51.9991 13.6726 50.6694 15.0018 49.3222C16.3385 47.9673 17.4796 46.4379 18.7539 45.0269C19.1857 44.5487 18.8633 44.0819 18.7631 43.6441C18.4943 42.4703 18.3253 41.2851 18.1932 40.0917C18.0863 39.1249 17.9329 38.1658 17.8717 37.1906C17.8266 36.4723 17.7466 35.7509 17.679 35.0312C17.529 33.4362 17.6014 31.8436 17.6258 30.2495C17.6292 30.0275 17.5482 29.9908 17.2926 30.0709C16.6544 30.2709 16.1564 30.7079 15.6143 31.0657C11.9762 33.4663 8.37177 35.9194 4.61687 38.1381C3.60617 38.7352 2.59877 39.3403 1.53147 39.8339C1.25497 39.9618 1.03197 40.1689 0.728965 40.2702C0.430565 40.37 0.230565 40.2863 0.0724654 40.0963C-0.0884346 39.9029 0.0531654 39.7224 0.163965 39.5203C0.377865 39.1302 0.754665 39.0929 1.09727 38.9285C1.90207 38.5426 2.67647 38.089 3.44437 37.6313C5.52557 36.3905 7.56566 35.0846 9.59367 33.7579C12.3992 31.9224 15.2304 30.1263 18.0578 28.3244C19.0567 27.6878 20.0908 27.1084 21.0926 26.4743C21.4753 26.2321 22.9451 25.5229 23.3084 25.516C22.757 26.032 22.17 26.4909 21.5579 26.9247C20.9405 27.3621 18.3892 29.4185 18.4524 30.4639C18.4728 30.8012 18.6695 34.1575 19.0049 37.3991C19.2861 40.1171 19.7075 42.7886 19.789 43.2014C19.8064 43.2893 19.7487 43.4127 19.8919 43.4433C20.0029 43.4671 20.0779 43.4029 20.1459 43.3241C21.0979 42.2216 22.0468 41.1163 23.0045 40.0186C23.6842 39.2394 24.376 38.4706 25.0624 37.6972C25.2245 37.8029 25.1041 38.4908 24.8025 38.7908Z" fill="#202124"/>
<path fill-rule="evenodd" clip-rule="evenodd" d="M85.4143 104.663C85.4143 102.768 85.4129 100.991 85.4164 99.2134C85.4167 99.028 85.3546 98.9148 85.1851 98.8178C83.1745 97.6673 81.3498 96.2513 79.5267 94.8338C79.3918 94.7289 79.262 94.6175 79.1287 94.5084C79.1287 96.2306 79.1706 97.9071 79.1101 99.5799C79.082 100.358 79.2631 100.743 80.0363 101.111C81.7138 101.911 83.2234 103.024 84.7129 104.143C84.9211 104.3 85.1312 104.453 85.4143 104.663ZM79.2166 101.279C79.1693 101.291 79.122 101.303 79.0747 101.315C79.0747 103.256 79.0759 105.196 79.0728 107.136C79.0726 107.336 79.1569 107.416 79.349 107.477C79.9202 107.661 80.4384 107.958 80.9446 108.28C82.3607 109.182 83.7687 110.095 85.0988 111.123C85.2433 111.234 85.3705 111.424 85.5121 111.393C85.5121 109.917 85.4769 108.473 85.5258 107.03C85.5536 106.21 85.3899 105.581 84.5439 105.283C84.4078 105.236 84.2941 105.121 84.1737 105.032C82.5045 103.804 80.74 102.702 79.2166 101.279ZM86.4333 111.727C88.0427 110.313 89.8045 109.309 91.5178 108.233C92.1082 107.862 92.7056 107.499 93.3719 107.28C93.6418 107.191 93.7376 107.064 93.7236 106.766C93.6381 104.954 93.5773 103.14 93.5055 101.327C93.5011 101.216 93.5323 101.092 93.394 100.965C92.5038 101.752 91.5328 102.447 90.5801 103.166C89.3069 104.126 88.0807 105.154 86.6862 105.944C86.5314 106.032 86.5555 106.16 86.5554 106.288C86.5542 108.064 86.6135 109.84 86.4333 111.727ZM93.4216 93.6926C91.9321 94.9846 90.4476 96.0512 88.9897 97.1511C88.1817 97.7606 87.3974 98.4114 86.5058 98.9007C86.2991 99.0141 86.3326 99.1532 86.3381 99.3116C86.4002 101.09 86.4639 102.868 86.528 104.646C86.5309 104.724 86.509 104.816 86.6403 104.854C88.2485 103.464 90.1174 102.436 91.9083 101.292C92.4028 100.975 93.175 100.905 93.3909 100.423C93.619 99.9131 93.4238 99.216 93.4226 98.6007C93.4196 97.0101 93.4216 95.4194 93.4216 93.6926ZM85.4087 97.3812C85.405 96.2686 85.4224 95.1557 85.4499 94.0434C85.4557 93.8101 85.5408 93.5787 85.6486 93.3411C86.2249 94.7663 86.0569 96.305 86.2858 97.7712C86.4297 97.8363 86.4896 97.7281 86.5594 97.672C87.5667 96.8608 88.6247 96.126 89.735 95.4599C92.6538 93.1939 93.4747 93.0235 93.4419 92.1066C93.4328 91.6913 93.1495 89.8172 93.4902 90.0341C93.9139 90.5106 93.9753 91.8076 94.0226 92.258C94.4908 96.7241 94.5435 101.212 94.6807 105.696C94.6964 106.211 94.6704 106.728 94.6735 107.244C94.6752 107.531 94.5999 107.8 94.3258 107.898C94.0725 107.99 93.8904 107.814 93.7604 107.587C93.6294 107.358 93.5113 107.552 93.4217 107.631C92.3664 108.565 91.2165 109.375 90.1007 110.231C89.141 110.967 88.1464 111.652 87.1784 112.374C86.669 112.753 86.0989 112.756 85.4861 112.529C84.7107 112.242 84.1212 111.685 83.4589 111.241C82.3291 110.484 81.2453 109.657 80.1574 108.838C79.8174 108.583 79.5263 108.262 79.2131 107.971C79.1388 107.847 79.0636 107.73 78.9654 107.955C78.4114 108.245 78.0511 107.993 78.0483 107.318C78.0381 104.857 78.0403 102.395 78.0116 99.933C77.9768 96.9368 77.9608 93.9418 78.0604 90.9459C78.0855 90.1927 78.2058 89.4682 78.3513 88.7393C78.3687 88.6517 78.3281 88.5025 78.4744 88.5188C78.5927 88.532 78.6387 88.6457 78.6539 88.7771C78.7448 89.5596 78.8701 90.3387 78.939 91.123C79.0071 91.8996 79.028 92.6807 79.0566 93.4603C79.064 93.6624 79.1085 93.7915 79.3125 93.8864C80.9734 94.6597 82.4523 95.7253 83.9304 96.791C84.2359 97.0113 84.5376 97.2369 84.8406 97.4598C84.869 97.5402 85.41 97.7804 85.4087 97.3812Z" fill="#202124"/>
<path fill-rule="evenodd" clip-rule="evenodd" d="M41.209 86.2848C41.2165 85.9862 41.0529 85.8045 40.816 85.6452C39.0618 84.4659 37.4776 83.0661 35.8124 81.7713C35.6986 81.6828 35.6451 81.5804 35.6448 81.4329C35.6418 79.6366 35.4596 77.842 35.5838 76.0492C35.7327 75.9502 35.8008 76.0867 35.8874 76.1456C37.7407 77.4082 39.5899 78.677 41.4477 79.9329C41.6801 80.09 41.7732 80.2565 41.7716 80.5412C41.7636 81.9398 41.7714 83.3387 41.7916 84.7371C41.799 85.2515 41.8561 85.7651 41.8904 86.279C41.6633 86.2808 41.4361 86.2828 41.209 86.2848Z" fill="#FAE041"/>
<path fill-rule="evenodd" clip-rule="evenodd" d="M58.778 52.8128C59.0282 52.7328 59.1718 52.8954 59.3344 53.0419C60.903 54.4538 62.6738 55.5923 64.4089 56.7784C64.738 57.0034 65.1135 57.1305 65.5053 57.2056C65.5759 57.4707 65.6669 57.7322 65.6539 58.0128C65.307 57.8814 65.1361 58.0259 65.0482 58.365C64.9716 58.6606 64.9621 58.9566 64.9623 59.2561C64.963 60.2653 64.9593 61.2744 64.8536 62.3541C64.176 61.9277 63.5502 61.5308 62.921 61.139C61.5958 60.3136 60.2737 59.483 58.9388 58.6734C58.6354 58.4893 58.5002 58.2913 58.5106 57.9202C58.549 56.5554 58.5488 55.1896 58.5656 53.8241C58.5693 53.5263 58.5705 53.23 58.4678 52.9448C58.5713 52.9009 58.6747 52.8568 58.778 52.8128Z" fill="#FAE041"/>
<path fill-rule="evenodd" clip-rule="evenodd" d="M64.2489 99.469C64.3114 99.1794 64.2312 98.9595 63.9737 98.7869C62.3008 97.6655 60.7998 96.3201 59.1919 95.1163C58.6075 94.6788 58.4015 94.2318 58.4562 93.5474C58.5198 92.7519 58.5263 91.9512 58.5389 91.1524C58.5439 90.8404 58.5932 90.7122 58.92 90.9127C60.5607 91.9192 62.1712 92.984 63.8673 93.8874C64.721 94.3421 64.9291 94.884 64.8861 95.776C64.8253 97.0365 64.9104 98.304 64.933 99.5681C64.6899 99.6381 64.4733 99.527 64.2489 99.469Z" fill="#FAE041"/>
<path fill-rule="evenodd" clip-rule="evenodd" d="M84.1686 86.4587C82.6883 85.9417 82.2 85.7522 81.6204 86.3399C82.8608 86.6444 83.4005 86.6736 84.1686 86.4587ZM79.217 87.4798C79.5715 87.6617 79.9273 87.841 80.2799 88.0264C80.5151 88.1502 80.6021 88.2013 80.5955 87.8231C80.5873 87.3547 80.4531 86.8902 80.5622 86.4116C80.639 86.0745 80.7794 85.8172 81.0937 85.6827C82.6161 85.1248 83.7861 85.5906 84.1902 85.6899C84.6486 85.8025 84.9421 86.0116 85.0036 86.5481C85.0505 86.9565 85.1994 87.3568 85.1263 87.7754C85.0942 87.959 84.9746 88.1602 84.7949 88.1748C84.6222 88.1888 84.6392 87.9494 84.5946 87.8191C84.5148 87.586 84.4694 87.3411 84.4039 87.0779C83.2944 87.4786 82.196 87.2713 81.1008 87.0664C80.9526 87.3852 81.1024 87.5182 81.3932 87.587C82.1012 87.7545 82.809 87.9237 83.5116 88.112C83.6331 88.1445 83.8695 88.1368 83.8388 88.3308C83.8159 88.4751 83.6126 88.4955 83.4644 88.5004C82.7157 88.5251 81.9682 88.5374 81.2394 88.3135C81.1586 88.2887 81.0491 88.1929 80.9816 88.3272C80.9196 88.4505 81.0321 88.5093 81.112 88.5563C82.6922 89.487 84.106 90.6602 85.6354 91.6649C85.8126 91.7812 85.9175 91.7525 86.0638 91.6206C87.3689 90.4441 88.8774 89.5582 90.3455 88.6115C91.038 88.1649 91.7244 87.7144 92.4612 87.3444C92.5308 87.3096 92.5958 87.2474 92.6677 87.2391C92.8736 87.2152 93.1504 87.0149 93.2617 87.1704C93.4029 87.3677 93.0888 87.4774 92.9595 87.5928C91.9454 88.498 90.8377 89.284 89.7617 90.1111C88.9991 90.6974 88.184 91.2097 87.4428 91.8222C86.1177 92.9173 85.5807 92.7272 84.2683 92.0378C83.5211 91.6453 82.9355 91.018 82.2425 90.5438C81.3769 89.9515 80.512 89.3587 79.6908 88.7045C79.2554 88.3576 78.94 87.8742 78.43 87.6108C78.3285 87.5584 78.2449 87.4366 78.2965 87.3162C78.3584 87.1717 78.5018 87.2494 78.6026 87.2695C78.7633 87.3016 78.8916 87.3141 79.217 87.4798Z" fill="#202124"/>
<path fill-rule="evenodd" clip-rule="evenodd" d="M92.8448 86.3253C92.7399 86.5146 92.6153 86.5438 92.4012 86.4087C90.1359 84.9796 87.9238 83.472 85.7535 81.9034C84.9558 81.6259 80.4392 85.2312 78.305 86.7672C78.1974 86.8446 78.0831 86.9134 77.969 86.9813C77.7486 87.1122 77.5819 86.9848 77.4393 86.844C77.2827 86.6893 77.4701 86.5636 77.5353 86.4698C77.7233 86.1996 78.01 86.0224 78.2532 85.805C79.5053 84.6863 80.9406 83.8148 82.264 82.7926C83.1459 82.1115 84.1141 81.5215 85.1516 81.0747C85.3789 80.9767 85.5823 81.0145 85.8109 81.1067C86.5485 81.4042 87.1877 81.8742 87.843 82.2993C88.8327 82.9414 89.7694 83.666 90.7448 84.3342C91.4049 84.7865 92.0427 85.2884 92.5917 85.8845C92.7045 86.0069 92.827 86.1225 92.8448 86.3253Z" fill="#202124"/>
<path fill-rule="evenodd" clip-rule="evenodd" d="M66.9801 30.6436C66.8849 28.9815 67.0742 27.3237 67.0549 25.6628C67.0522 25.4369 67.1167 25.4072 67.3119 25.5215C69.2238 26.6406 71.1749 27.693 73.1276 28.9152C72.4572 29.2832 71.7764 29.372 71.1208 29.5341C70.0002 29.8111 68.8503 29.9745 67.7729 30.4188C67.5578 30.5076 67.3528 30.6057 67.1633 30.7383C67.1022 30.7067 67.0411 30.6752 66.9801 30.6436Z" fill="#20BEFF"/>
<path fill-rule="evenodd" clip-rule="evenodd" d="M36.2903 13.2479C36.5032 13.2555 36.7073 13.2814 36.7653 13.4744C36.8306 13.6916 36.5929 13.7134 36.4679 13.8019C36.0617 14.0894 35.5718 14.2083 35.145 14.4491C33.9453 15.1261 32.7987 15.8667 31.7235 16.75C30.4238 17.8176 29.18 18.9325 28.0246 20.1484C27.1263 21.0937 26.459 22.2196 25.6664 23.2479C25.3019 23.7208 24.8988 24.1622 24.3507 24.4387C24.2111 24.5091 24.0584 24.6737 23.9203 24.5292C23.7899 24.3926 23.989 24.2605 24.0555 24.1541C24.7232 23.0855 25.4184 22.032 26.2069 21.0496C28.4786 18.2195 31.1058 15.781 34.2636 13.9613C34.8883 13.6013 35.5929 13.3733 36.2903 13.2479Z" fill="#202124"/>
<path fill-rule="evenodd" clip-rule="evenodd" d="M37.9721 5.83175C37.9874 5.55775 37.7438 5.53875 37.583 5.45175C36.3739 4.79695 35.0634 4.39895 33.6343 3.94755C35.2835 2.89355 36.9934 2.12475 38.448 0.832153V5.64725C38.3265 5.80435 38.1736 5.88065 37.9721 5.83175Z" fill="#20BEFF"/>
<path fill-rule="evenodd" clip-rule="evenodd" d="M87.7779 85.9856C88.457 86.1248 89.0841 86.2667 89.7141 86.1387C89.8241 86.1163 89.8341 85.9633 89.728 85.9264C89.098 85.7073 88.4655 85.4142 87.7482 85.7802C87.6563 85.8271 87.6769 85.9649 87.7779 85.9856ZM90.776 87.7856C90.7497 87.7644 90.7092 87.7482 90.7004 87.7216C90.5887 87.3838 90.5739 86.873 90.3485 86.7514C90.0984 86.6166 89.6594 86.8661 89.2984 86.8963C88.6474 86.9509 88.0068 86.8312 87.3668 86.7216C87.2713 86.7053 87.1078 86.5537 87.0555 86.7839C87.0148 86.9635 87.0594 87.0709 87.2675 87.1475C87.9872 87.4126 88.7547 87.4749 89.481 87.7037C89.6138 87.7455 89.8389 87.7534 89.8305 87.9055C89.82 88.0948 89.597 88.0959 89.4381 88.1014C88.7061 88.1266 87.9688 88.1561 87.2651 87.9115C86.8889 87.7808 86.5078 87.6814 86.5921 87.0698C86.6368 86.7446 86.5177 86.3617 86.5667 85.9973C86.6102 85.6735 86.7636 85.4292 87.0616 85.3001C88.2198 84.8985 89.3563 85.1416 89.5693 85.1735C91.0897 85.4019 90.8776 85.5824 91.137 87.0373C91.1949 87.3618 91.0637 87.6169 90.776 87.7856Z" fill="#202124"/>
<path fill-rule="evenodd" clip-rule="evenodd" d="M46.0248 38.2669C45.2067 38.0463 44.4055 37.4752 43.4245 38.1692C44.3588 38.3244 45.1729 38.579 46.0248 38.2669ZM45.7727 40.2668C44.743 40.3788 43.7143 40.4492 42.7434 39.9239C42.5727 39.8315 42.4075 39.689 42.5285 39.438C42.5541 39.385 42.5554 39.3092 42.5419 39.2498C42.181 37.6601 42.9493 37.242 44.2227 37.1797C44.9644 37.1434 45.8058 37.3006 46.5005 37.6716C47.0778 37.98 46.9528 38.6722 47.0655 39.2164C47.1346 39.5501 47.0211 39.8354 46.7036 40.0107C46.6769 39.9874 46.6381 39.97 46.629 39.9428C46.5159 39.6058 46.5012 39.1233 46.2695 38.972C46.0602 38.8354 45.6173 39.089 45.273 39.1197C44.6224 39.1778 43.9821 39.0609 43.3412 38.9572C43.2404 38.9409 43.0583 38.7456 42.9851 39.0159C42.9214 39.2509 43.0476 39.3409 43.2509 39.3908C43.9574 39.5644 44.6633 39.7406 45.3677 39.9227C45.5166 39.9612 45.6581 40.0286 45.803 40.0827C45.7929 40.144 45.7828 40.2054 45.7727 40.2668Z" fill="#202124"/>
<path fill-rule="evenodd" clip-rule="evenodd" d="M49.8854 77.1249C48.2608 76.1741 46.704 75.2691 45.1536 74.3531C44.4138 73.9159 43.6555 73.5096 42.9513 73.0112C42.7509 72.8692 42.6657 72.7336 42.6701 72.4892C42.7066 70.4596 42.7362 68.4298 42.7551 66.4C42.7581 66.0773 42.8556 66.0747 43.0945 66.217C44.8307 67.2519 46.5698 68.2819 48.3096 69.3108C48.7078 69.5463 49.109 69.777 49.5151 69.9985C49.6895 70.0936 49.7762 70.2008 49.7841 70.4188C49.8646 72.6304 49.8765 74.8427 49.8854 77.1249Z" fill="#FAE041"/>
<path fill-rule="evenodd" clip-rule="evenodd" d="M50.8706 70.8051C51.8097 71.3599 52.6928 71.8747 53.569 72.4009C54.7637 73.1183 55.9505 73.849 57.1474 74.5627C57.3674 74.6939 57.4496 74.8359 57.4743 75.1049C57.6648 77.1794 57.4652 79.2645 57.6603 81.3376C57.6898 81.6504 57.587 81.6779 57.331 81.5251C55.2665 80.2924 53.1974 79.0672 51.1289 77.841C50.9815 77.7536 50.8661 77.6676 50.8667 77.4621C50.873 75.2704 50.8706 73.0788 50.8706 70.8051Z" fill="#FAE041"/>
<path fill-rule="evenodd" clip-rule="evenodd" d="M58.4756 75.3666C60.0554 76.3654 61.5665 77.3184 63.075 78.2755C63.6634 78.6488 64.2379 79.0447 64.8351 79.4029C65.0836 79.552 65.1616 79.7211 65.154 80.005C65.0993 82.0482 64.9224 84.0871 64.9596 86.1333C64.7487 86.1847 64.6353 86.0357 64.503 85.9541C62.6404 84.8044 60.7836 83.6453 58.9176 82.501C58.6762 82.3529 58.5752 82.18 58.5756 81.9036C58.5793 79.7588 58.4098 77.6168 58.4756 75.3666Z" fill="#FAE041"/>
<path fill-rule="evenodd" clip-rule="evenodd" d="M57.4971 73.6378C56.1424 72.8346 54.8909 72.0914 53.6383 71.3503C52.8241 70.8686 52.0144 70.3788 51.1892 69.9166C50.9341 69.7736 50.8401 69.6075 50.8555 69.3228C50.9152 68.2277 50.8489 67.1305 50.8412 66.0358C50.835 65.1442 50.7848 64.2444 50.7368 63.3491C50.7298 63.2187 50.7358 63.0876 50.7358 62.8494C51.3402 63.2173 51.8868 63.5453 52.4288 63.8807C53.9957 64.8504 55.5595 65.8253 57.1282 66.792C57.3368 66.9206 57.484 67.0393 57.4816 67.3275C57.4647 69.3911 57.3465 71.4544 57.4971 73.6378Z" fill="#FAE041"/>
<path fill-rule="evenodd" clip-rule="evenodd" d="M58.5945 59.6143C59.6742 60.3024 60.7486 60.9831 61.8187 61.6702C62.7411 62.2625 63.6572 62.8645 64.5798 63.4565C64.7539 63.5683 64.9035 63.6713 64.903 63.9123C64.8987 66.0695 64.9005 68.2266 64.9005 70.4988C63.8561 69.8351 62.9249 69.2405 61.9908 68.6506C60.9235 67.9766 59.8553 67.3039 58.7832 66.6376C58.5912 66.5183 58.4452 66.4117 58.4493 66.1431C58.4825 64.0124 58.4252 61.8806 58.5345 59.7508C58.536 59.722 58.5586 59.6941 58.5945 59.6143Z" fill="#FAE041"/>
<path fill-rule="evenodd" clip-rule="evenodd" d="M41.5442 72.2357C40.6712 71.723 39.8166 71.2251 38.9661 70.7205C38.0101 70.1532 37.0624 69.5716 36.1003 69.0149C35.8545 68.8726 35.7492 68.718 35.7567 68.4257C35.8087 66.412 35.8472 64.398 35.8796 62.3838C35.8853 62.0347 35.9479 61.9257 36.2969 62.1389C37.9815 63.1681 39.6757 64.1818 41.3692 65.1965C41.5503 65.305 41.6776 65.413 41.678 65.6554C41.6813 67.7868 41.6748 69.918 41.6028 72.0485C41.6013 72.0926 41.5763 72.1359 41.5442 72.2357Z" fill="#FAE041"/>
<path fill-rule="evenodd" clip-rule="evenodd" d="M41.5756 64.3008C39.7679 63.2208 37.9622 62.1376 36.15 61.0654C35.9413 60.9421 35.9684 60.7729 35.9715 60.5945C36.0071 58.5967 36.0534 56.599 36.0743 54.6011C36.0798 54.0794 36.3228 54.3144 36.5193 54.43C38.0064 55.305 39.4701 56.222 40.9828 57.0498C41.6205 57.3987 41.8295 57.7929 41.8049 58.5203C41.7405 60.4288 41.7832 62.3409 41.7832 64.2516C41.714 64.268 41.6448 64.2844 41.5756 64.3008Z" fill="#FAE041"/>
<path fill-rule="evenodd" clip-rule="evenodd" d="M41.8101 52.9925C41.8101 53.991 41.8124 54.9895 41.8074 55.9879C41.8067 56.1276 41.8905 56.3086 41.7342 56.3978C41.5986 56.4751 41.494 56.3215 41.3867 56.259C39.753 55.3078 38.1243 54.3482 36.4904 53.3974C36.2582 53.2623 36.1246 53.1207 36.1285 52.8165C36.1546 50.7863 36.1661 48.7558 36.1617 46.7254C36.1608 46.3065 36.2254 46.2339 36.6082 46.4674C38.1934 47.434 39.7905 48.3811 41.3928 49.3189C41.6742 49.4836 41.7815 49.6783 41.777 49.9967C41.763 50.9951 41.7719 51.9939 41.7719 52.9925H41.8101Z" fill="#FAE041"/>
<path fill-rule="evenodd" clip-rule="evenodd" d="M64.9107 93.3792C63.3261 92.288 61.7777 91.4318 60.2436 90.5523C59.7846 90.2892 59.313 90.0478 58.8424 89.8057C58.6885 89.7266 58.5563 89.6676 58.5744 89.4482C58.7354 87.5058 58.619 85.5584 58.6712 83.614C58.6715 83.6017 58.6866 83.5898 58.7285 83.5281C59.5764 84.0614 60.4296 84.5917 61.2765 85.1321C62.3812 85.8373 63.4798 86.5517 64.5833 87.2588C64.7701 87.3785 64.9188 87.4874 64.917 87.7569C64.9049 89.5859 64.9107 91.415 64.9107 93.3792Z" fill="#FAE041"/>
<path fill-rule="evenodd" clip-rule="evenodd" d="M41.7334 78.967C40.8567 78.3691 40.0557 77.8179 39.2495 77.2743C38.1346 76.5227 37.017 75.7752 35.8978 75.0301C35.7292 74.9179 35.5541 74.8299 35.5815 74.578C35.7511 73.0206 35.6329 71.4542 35.7079 69.8607C36.0903 69.9022 36.3432 70.1594 36.6287 70.3274C38.1425 71.2179 39.64 72.1363 41.1544 73.0258C41.4755 73.2144 41.609 73.4191 41.6127 73.8094C41.6274 75.3723 41.6894 76.9348 41.733 78.4974C41.7365 78.624 41.7334 78.7508 41.7334 78.967Z" fill="#FAE041"/>
<path fill-rule="evenodd" clip-rule="evenodd" d="M36.0611 39.8293C37.8763 41.3327 39.7076 42.6696 41.6478 43.8546C41.8081 43.9525 41.8822 44.0508 41.8578 44.2501C41.7041 45.5082 41.7736 46.7732 41.762 48.0354C41.759 48.3641 41.7388 48.5136 41.3694 48.2914C39.7374 47.3093 38.0947 46.3446 36.4558 45.3739C36.3142 45.2901 36.1655 45.2256 36.1732 45.0117C36.2341 43.3028 36.0569 41.5978 36.0611 39.8293Z" fill="#FAE041"/>
</g>
<defs>
<clipPath id="clip0_0_7351">
<rect width="109" height="112.7" fill="white"/>
</clipPath>
</defs>
</svg>
